<svg width="60" height="25" viewBox="0 0 60 25" fill="none" xmlns="http://www.w3.org/2000/svg">
<path d="M48.5453 5.3102C50.0799 5.3102 51.324 4.12994 51.324 2.67402C51.324 1.2181 50.0799 0.0378418 48.5453 0.0378418C47.0107 0.0378418 45.7666 1.2181 45.7666 2.67402C45.7666 4.12994 47.0107 5.3102 48.5453 5.3102Z" fill="#24282D"/>
<path d="M46.4331 8.9455V23.963C46.4331 24.7751 47.527 24.9875 48.6209 24.9875C49.7147 24.9875 50.8086 24.7751 50.8086 23.963V8.9455C50.8086 7.85854 49.7147 7.70862 48.6209 7.70862C47.5396 7.70862 46.4331 7.85854 46.4331 8.9455Z" fill="#24282D"/>
<path d="M55.6245 1.23688V23.963C55.6245 24.7751 56.7184 24.9875 57.8123 24.9875C58.9061 24.9875 60 24.7751 60 23.963V1.23688C60 0.149925 58.9061 0 57.8123 0C56.731 0 55.6245 0.149925 55.6245 1.23688Z" fill="#24282D"/>
<path d="M24.2024 16.0669C24.2024 11.3443 27.9995 7.13391 33.4815 7.13391C38.9383 7.13391 42.8234 11.2693 42.8234 16.0419C42.8234 21.1769 38.5108 24.9999 33.5318 24.9999C28.0121 24.9875 24.2024 20.7771 24.2024 16.0669ZM33.4689 21.3518C36.3859 21.3518 38.5736 18.9655 38.5736 16.0294C38.5736 13.0934 36.3859 10.7696 33.4689 10.7696C30.5519 10.7696 28.4019 13.1309 28.4019 16.0669C28.4019 19.003 30.5519 21.3518 33.4689 21.3518Z" fill="#24282D"/>
<path d="M21.6889 20.3855C21.6889 22.6719 16.3201 24.9832 12.5858 24.9832C8.00917 24.9832 3.72169 22.547 1.53394 18.6239C0.502931 16.7998 0 14.7259 0 12.6519C0 10.2406 0.69153 7.82933 2.04944 5.76787C3.13074 4.1187 5.18019 1.9198 8.78871 0.745388C9.69399 0.445539 11.3285 0.020752 13.1642 0.020752C18.3192 0.020752 21.5632 3.60645 21.5632 6.74238C21.5632 8.8913 19.8029 11.9523 15.4903 11.9523C13.5163 11.9523 12.8499 11.1277 12.8499 10.1782C12.8499 8.9038 14.0443 7.41704 14.9119 7.41704C15.2765 7.41704 15.5028 7.77936 16.2069 7.67941C16.8985 7.57946 17.2631 7.11719 17.2631 6.54248C17.2631 5.45553 15.968 4.00625 13.2145 4.00625C12.3344 4.00625 11.3034 4.15618 10.1089 4.5185C7.65712 5.25563 6.31178 7.00475 5.5951 8.0917C4.68983 9.46601 4.23719 11.0777 4.23719 12.6644C4.23719 14.0262 4.57667 15.388 5.24305 16.5874C6.68898 19.1612 9.53054 20.7728 12.5858 20.7728C16.7979 20.7728 17.9798 18.524 18.8348 18.1617C20.3435 17.4995 21.6889 19.3111 21.6889 20.3855Z" fill="#24282D"/>
</svg>
