<svg width="32" height="24" viewBox="0 0 32 24" fill="none" xmlns="http://www.w3.org/2000/svg">
<path fill-rule="evenodd" clip-rule="evenodd" d="M8 9C8 7.9 8.9 7 10 7C11.1 7 12 7.9 12 9V11H8V9ZM15 11H14V9C14 6.8 12.2 5 10 5C7.8 5 6 6.8 6 9V11H5C4.5 11 4 11.5 4 12V18C4 18.5 4.5 19 5 19H15C15.5 19 16 18.5 16 18V12C16 11.5 15.5 11 15 11V11Z" fill="#0070F3"/>
<path fill-rule="evenodd" clip-rule="evenodd" d="M25 7C25.5523 7 26 7.44772 26 8V14.5858L27.2929 13.2929C27.6834 12.9024 28.3166 12.9024 28.7071 13.2929C29.0976 13.6834 29.0976 14.3166 28.7071 14.7071L25.7071 17.7071C25.3166 18.0976 24.6834 18.0976 24.2929 17.7071L21.2929 14.7071C20.9024 14.3166 20.9024 13.6834 21.2929 13.2929C21.6834 12.9024 22.3166 12.9024 22.7071 13.2929L24 14.5858V8C24 7.44772 24.4477 7 25 7Z" fill="#0070F3"/>
</svg>
