<svg width="48" height="48" viewBox="0 0 48 48" fill="none" xmlns="http://www.w3.org/2000/svg">
<path d="M19.7501 28.901C19.7501 28.1705 19.5255 27.5688 19.0765 27.0962C18.6274 26.6149 17.879 26.1851 16.8311 25.807C15.7833 25.4202 14.9684 25.0636 14.3862 24.737C12.4486 23.6627 11.4798 22.0727 11.4798 19.9671C11.4798 18.5404 11.8998 17.3672 12.7397 16.4476C13.5796 15.528 14.4694 15.0081 15.9081 14.8362V12H18.1534V14.8362C19.6004 15.051 20.7189 15.687 21.5089 16.7441C22.2989 17.7927 22.6939 19.1592 22.6939 20.8437H19.6752C19.6752 19.7608 19.4382 18.9099 18.9642 18.2911C18.4985 17.6637 17.8623 17.35 17.0557 17.35C16.2573 17.35 15.6336 17.5735 15.1846 18.0204C14.7355 18.4673 14.511 19.1076 14.511 19.9413C14.511 20.689 14.7314 21.2906 15.1721 21.7461C15.6212 22.193 16.3779 22.6184 17.4424 23.0224C18.5068 23.4263 19.3426 23.8002 19.9496 24.144C20.5567 24.4877 21.0682 24.8831 21.484 25.33C21.8998 25.7683 22.2199 26.2754 22.4445 26.8512C22.669 27.427 22.7813 28.1017 22.7813 28.8752C22.7813 30.3277 22.3488 31.5051 21.484 32.4075C20.6274 33.3099 19.5879 33.8557 18.0494 34.019V36H15.9081V34.019C14.2615 33.8299 12.9933 33.2197 12.1035 32.1884C11.222 31.157 10.7812 29.7905 10.7812 28.0888H13.8124C13.8124 29.1717 14.0744 30.0097 14.5983 30.6027C15.1305 31.1957 15.879 31.4922 16.8436 31.4922C17.7916 31.4922 18.511 31.2559 19.0016 30.7832C19.5006 30.3105 19.7501 29.6831 19.7501 28.901Z" fill="#40C28D"/>
<rect x="25.9714" y="22" width="2" height="6" fill="#40C28D"/>
<rect x="29.9714" y="20" width="2" height="10" fill="#40C28D"/>
<rect x="33.9714" y="18" width="2" height="14" fill="#40C28D"/>
<circle cx="24" cy="24" r="22.5" stroke="#40C28D" stroke-width="3"/>
</svg>
