<svg width="32" height="32" viewBox="0 0 32 32" fill="none" xmlns="http://www.w3.org/2000/svg">
<path fill-rule="evenodd" clip-rule="evenodd" d="M16 32C24.8366 32 32 24.8366 32 16C32 7.16344 24.8366 0 16 0C7.16344 0 0 7.16344 0 16C0 24.8366 7.16344 32 16 32ZM22.2293 20.7672C21.8378 19.841 21.2786 19.623 20.8498 19.623C20.6964 19.623 20.5429 19.6534 20.4465 19.6725C20.4375 19.6743 20.429 19.676 20.421 19.6775C20.2663 19.7435 20.1103 19.8803 19.9176 20.0493C19.3674 20.5319 18.5178 21.277 16.5435 21.3846H16.2266C14.1759 21.3846 12.2744 20.3313 11.305 18.6423C10.8576 17.8433 10.6339 16.9534 10.6339 16.0635C10.6339 15.0283 10.9322 13.975 11.5474 13.067C12.0134 12.3587 12.9269 11.2145 14.5674 10.7242C15.3504 10.4881 16.0401 10.3973 16.6367 10.3973C18.5009 10.3973 19.3584 11.3598 19.3584 12.0681C19.3584 12.4495 19.1161 12.7582 18.65 12.8127C18.5941 12.8309 18.5568 12.8309 18.5009 12.8309C18.3331 12.8309 18.1467 12.7945 17.9976 12.7037C17.9416 12.6674 17.8671 12.6493 17.7925 12.6493C17.2146 12.6493 16.413 13.6299 16.413 14.4653C16.413 15.0828 16.8604 15.6276 18.184 15.6276C18.4049 15.6276 18.6392 15.6016 18.9094 15.5716C18.9584 15.5661 19.0086 15.5606 19.0602 15.555C20.5142 15.3552 21.7633 14.3382 22.1361 13.0125C22.192 12.849 22.248 12.5766 22.248 12.2134C22.248 11.378 21.9124 10.0886 20.2905 8.90811C19.1347 8.05455 17.8111 7.80029 16.618 7.80029C15.3877 7.80029 14.3064 8.07271 13.6912 8.27248C11.2677 9.05339 9.88822 10.4881 9.17981 11.5778C8.26635 12.9398 7.80029 14.5198 7.80029 16.0998C7.80029 17.4619 8.13585 18.8058 8.82561 20.0226C10.2983 22.6014 13.1506 24.1996 16.2266 24.1996C16.3011 24.1996 16.3804 24.195 16.4596 24.1905C16.5388 24.186 16.618 24.1814 16.6926 24.1814C18.7619 24.0725 22.3225 22.6922 22.3225 21.1667C22.3225 21.0396 22.2853 20.8943 22.2293 20.7672Z" fill="black"/>
</svg>
